<svg width="147" height="44" viewBox="0 0 147 44" fill="none" xmlns="http://www.w3.org/2000/svg">
<g clip-path="url(#clip0_25_22199)">
<path d="M141.35 43.5677H5.54102C2.55321 43.5677 0.108643 41.1231 0.108643 38.1353V5.54108C0.108643 2.55327 2.55321 0.108704 5.54102 0.108704H141.35C144.338 0.108704 146.783 2.55327 146.783 5.54108V38.1353C146.783 41.1231 144.338 43.5677 141.35 43.5677Z" fill="white"/>
<path d="M141.35 0.108704H5.54102C2.55321 0.108704 0.108643 2.55327 0.108643 5.54108V38.1353C0.108643 41.1231 2.55321 43.5677 5.54102 43.5677H141.35C144.338 43.5677 146.783 41.1231 146.783 38.1353V5.54108C146.783 2.55327 144.338 0.108704 141.35 0.108704ZM141.35 0.977886C143.867 0.977886 145.914 3.02524 145.914 5.54108V38.1353C145.914 40.6516 143.867 42.6989 141.35 42.6989H5.54102C3.02517 42.6989 0.977822 40.6516 0.977822 38.1353V5.54108C0.977822 3.02524 3.02517 0.977886 5.54102 0.977886H141.35Z" fill="black"/>
<path d="M51.6275 11.2378C51.6275 12.148 51.358 12.8729 50.8181 13.4137C50.2049 14.0567 49.4057 14.3784 48.4232 14.3784C47.4823 14.3784 46.6823 14.0524 46.0245 13.3997C45.3654 12.7473 45.0366 11.9385 45.0366 10.9733C45.0366 10.0078 45.3654 9.19935 46.0245 8.5466C46.6823 7.89428 47.4823 7.5679 48.4232 7.5679C48.8901 7.5679 49.337 7.65916 49.7614 7.84126C50.1858 8.02378 50.5262 8.26607 50.7809 8.56952L50.2079 9.14285C49.7763 8.62721 49.1821 8.36961 48.4232 8.36961C47.737 8.36961 47.1437 8.6107 46.6429 9.0932C46.142 9.57625 45.8917 10.2026 45.8917 10.9733C45.8917 11.7441 46.142 12.3704 46.6429 12.8535C47.1437 13.336 47.737 13.5771 48.4232 13.5771C49.1511 13.5771 49.758 13.3347 50.2439 12.8493C50.5593 12.533 50.7417 12.0934 50.7905 11.5289H48.4232V10.7458H51.5821C51.6127 10.9161 51.6275 11.0795 51.6275 11.2378Z" fill="black"/>
<path d="M51.6276 11.2379H51.5189C51.518 12.1274 51.2583 12.8183 50.7413 13.3369L50.7401 13.3378L50.7397 13.3387C50.1459 13.9595 49.3828 14.2685 48.4232 14.2698C47.5074 14.2685 46.7409 13.9561 46.1009 13.3229C45.4622 12.6884 45.1464 11.9139 45.1452 10.9734C45.1464 10.0325 45.4622 9.25843 46.1009 8.62436C46.7409 7.99073 47.5074 7.67794 48.4232 7.67663C48.8761 7.67663 49.3073 7.76496 49.7185 7.94108C50.1302 8.1185 50.4554 8.35101 50.6976 8.63968L50.7809 8.56961L50.7041 8.49279L50.131 9.06656L50.2079 9.14294L50.2915 9.0734C49.8399 8.53223 49.2059 8.25942 48.4232 8.26105C47.7116 8.26018 47.0855 8.51441 46.5677 9.01528C46.0449 9.51777 45.7822 10.1793 45.7831 10.9734C45.7822 11.7675 46.0449 12.4291 46.5677 12.9316C47.0855 13.4325 47.7116 13.6867 48.4232 13.6858C49.1753 13.6871 49.8162 13.432 50.3207 12.9262C50.6578 12.5883 50.8488 12.1202 50.8989 11.5383L50.909 11.4203H48.5319V10.8546H51.5821V10.7459L51.4751 10.765C51.5049 10.9298 51.5189 11.0863 51.5189 11.2379H51.6276H51.7362C51.7362 11.0727 51.7209 10.903 51.6891 10.7265L51.673 10.6373H48.3146V11.5289V11.6376H50.7905V11.5289L50.6823 11.5196C50.6344 12.0663 50.4604 12.478 50.1671 12.7725C49.7003 13.2376 49.1274 13.4672 48.4232 13.4685C47.7624 13.4677 47.2018 13.2401 46.7184 12.7755C46.2397 12.3124 46.0016 11.7213 46.0004 10.9734C46.0016 10.2256 46.2397 9.63446 46.7184 9.1714C47.2018 8.70672 47.7624 8.47921 48.4232 8.47834C49.1579 8.48008 49.7126 8.7228 50.1247 9.21302L50.2011 9.30385L50.8577 8.64642L50.9281 8.57602L50.864 8.49996C50.597 8.18174 50.2414 7.92913 49.8042 7.7416C49.3663 7.55353 48.9041 7.45934 48.4232 7.45934C47.4573 7.45847 46.6238 7.79799 45.9477 8.46987C45.2691 9.14044 44.927 9.98333 44.9279 10.9734C44.927 11.9631 45.2691 12.8064 45.9481 13.4774C46.6238 14.1489 47.4573 14.488 48.4232 14.4871C49.4291 14.488 50.2635 14.1539 50.8967 13.4888L50.8181 13.4138L50.8949 13.4906C51.4577 12.9282 51.737 12.1686 51.7362 11.2379H51.6276Z" fill="black"/>
<path d="M56.6354 8.51484H53.6667V10.5817H56.3439V11.3651H53.6667V13.432H56.6354V14.2328H52.8298V7.714H56.6354V8.51484Z" fill="black"/>
<path d="M56.6354 8.51484V8.40619H53.5581V10.6904H56.2353V11.2561L53.5581 11.2564V13.5407H56.5268V14.1242H52.9385V7.82264H56.5268V8.51484H56.6354V8.40619V8.51484H56.7441V7.714V7.60535H52.7212V14.3415H56.7441V13.432V13.3234H53.7754V11.4737H56.4526V10.5817V10.4731H53.7754V8.62349H56.7441V8.51484H56.6354Z" fill="black"/>
<path d="M60.1678 14.2328H59.3296V8.51484H57.5089V7.714H61.9885V8.51484H60.1678V14.2328Z" fill="black"/>
<path d="M60.1678 14.2328V14.1242H59.4382V8.40619H57.6175V7.82264H61.8798V8.40619H60.0591V14.2328H60.1678V14.1242V14.2328H60.2764V8.62349H62.0971V7.714V7.60535H57.4002V8.51484V8.62349H59.2209V14.3415H60.1678H60.2764V14.2328H60.1678Z" fill="black"/>
<path d="M65.2297 14.2328V7.714H66.067V14.2328H65.2297Z" fill="black"/>
<path d="M65.2296 14.2328H65.3383V7.82264H65.9583V14.1242H65.2296V14.2328H65.3383H65.2296V14.3415H66.067H66.1756V7.60535H65.2296H65.121V14.3415H65.2296V14.2328Z" fill="black"/>
<path d="M69.7827 14.2328H68.9444V8.51484H67.1238V7.714H71.6034V8.51484H69.7827V14.2328Z" fill="black"/>
<path d="M69.7826 14.2328V14.1242H69.0531V8.40619H67.2325V7.82264H71.4947V8.40619H69.674V14.2328H69.7826V14.1242V14.2328H69.8913V8.62349H71.712V7.714V7.60535H67.0152V8.51484V8.62349H68.8358V14.3415H69.7826H69.8913V14.2328H69.7826Z" fill="black"/>
<path d="M75.9221 12.8446C76.4046 13.3331 76.995 13.5771 77.6931 13.5771C78.3913 13.5771 78.982 13.3331 79.4638 12.8446C79.9467 12.3561 80.1886 11.7317 80.1886 10.9733C80.1886 10.215 79.9467 9.59059 79.4638 9.10211C78.982 8.61363 78.3913 8.36961 77.6931 8.36961C76.995 8.36961 76.4046 8.61363 75.9221 9.10211C75.4403 9.59059 75.1985 10.215 75.1985 10.9733C75.1985 11.7317 75.4403 12.3561 75.9221 12.8446ZM80.0834 13.3903C79.4425 14.0494 78.6454 14.3784 77.6931 14.3784C76.7399 14.3784 75.9433 14.0494 75.3038 13.3903C74.6624 12.732 74.3433 11.9262 74.3433 10.9733C74.3433 10.0205 74.6624 9.21456 75.3038 8.55637C75.9433 7.89721 76.7399 7.5679 77.6931 7.5679C78.6404 7.5679 79.4353 7.89895 80.0791 8.56061C80.7221 9.22227 81.0438 10.0265 81.0438 10.9733C81.0438 11.9262 80.7229 12.732 80.0834 13.3903Z" fill="black"/>
<path d="M75.9221 12.8447L75.8448 12.921C76.3453 13.4291 76.9696 13.6871 77.6932 13.6858C78.4163 13.6871 79.0415 13.4291 79.541 12.921C80.0447 12.4126 80.2981 11.7547 80.2973 10.9734C80.2981 10.1921 80.0447 9.53429 79.541 9.02582C79.0415 8.51778 78.4163 8.25974 77.6932 8.26105C76.9696 8.25974 76.3453 8.51778 75.8448 9.02582C75.3423 9.53429 75.0885 10.1921 75.0898 10.9734C75.0885 11.7547 75.3423 12.4126 75.8448 12.921L75.9221 12.8447L75.9993 12.7683C75.5385 12.2993 75.308 11.7093 75.3071 10.9734C75.308 10.2376 75.5385 9.64761 75.9993 9.17858C76.4645 8.70965 77.02 8.47965 77.6932 8.47834C78.3658 8.47965 78.9226 8.70965 79.3865 9.17858C79.8483 9.64761 80.0787 10.2376 80.0796 10.9734C80.0787 11.7093 79.8483 12.2993 79.3865 12.7683C78.9226 13.2372 78.3658 13.4672 77.6932 13.4685C77.02 13.4672 76.4645 13.2372 75.9993 12.7683L75.9221 12.8447ZM80.0834 13.3904L80.0057 13.3149C79.3827 13.9532 78.6209 14.2685 77.6932 14.2698C76.765 14.2685 76.0031 13.9532 75.3813 13.3149L75.3784 13.3115L75.3813 13.3149C74.7597 12.6744 74.4528 11.902 74.452 10.9734C74.4528 10.0448 74.7597 9.27245 75.3813 8.63197C76.0031 7.99367 76.765 7.67794 77.6932 7.67663C78.6149 7.67794 79.375 7.99497 80.0015 8.63664C80.6253 9.28005 80.9339 10.0512 80.9352 10.9734C80.9339 11.902 80.6262 12.6744 80.0057 13.3149L80.0834 13.3904L80.1615 13.4659C80.8201 12.7895 81.1533 11.9504 81.1525 10.9734C81.1533 10.002 80.8188 9.16467 80.1572 8.48519C79.4952 7.8031 78.6659 7.45814 77.6932 7.45934C76.7153 7.45814 75.8835 7.80147 75.2257 8.48095V8.48051C74.5657 9.15739 74.2338 9.99647 74.2347 10.9734C74.2338 11.9504 74.5657 12.7895 75.2257 13.4663L75.2286 13.4694L75.2257 13.4659C75.8835 14.1454 76.7153 14.488 77.6932 14.4871C78.6705 14.488 79.5023 14.1454 80.1615 13.4659L80.0834 13.3904Z" fill="black"/>
<path d="M82.2194 14.2328V7.714H83.2388L86.407 12.7852H86.4431L86.407 11.5289V7.714H87.2452V14.2328H86.3709L83.0563 8.91586H83.0202L83.0563 10.1726V14.2328H82.2194Z" fill="black"/>
<path d="M82.2194 14.2328H82.328V7.82264H83.1785L86.3467 12.8939H86.4431H86.5546L86.5156 11.5273V7.82264H87.1366V14.1242H86.4312L83.1166 8.80721H83.0202H82.9087L82.9477 10.1743V14.1242H82.2194V14.2328H82.328H82.2194V14.3415H83.0563H83.1649V10.1708L83.1289 8.91292L83.0202 8.91586V9.0245H83.0563V8.91586L82.9642 8.97365L86.3106 14.3415H87.2452H87.3539V7.60535H86.407H86.2983V11.5302L86.3344 12.7882L86.4431 12.7852V12.6766H86.407V12.7852L86.4991 12.7275L83.299 7.60535H82.2194H82.1107V14.3415H82.2194V14.2328Z" fill="black"/>
<path d="M116.292 32.7029H118.319V19.1207H116.292V32.7029ZM134.552 24.0133L132.228 29.9019H132.159L129.747 24.0133H127.563L131.18 32.2437L129.118 36.8217H131.233L136.807 24.0133H134.552ZM123.055 31.1602C122.39 31.1602 121.465 30.8283 121.465 30.0067C121.465 28.9584 122.618 28.5565 123.614 28.5565C124.506 28.5565 124.924 28.7487 125.466 29.0111C125.309 30.269 124.225 31.1602 123.055 31.1602ZM123.3 23.7161C121.832 23.7161 120.312 24.3629 119.683 25.7957L121.482 26.5469C121.867 25.7957 122.583 25.5509 123.334 25.5509C124.383 25.5509 125.449 26.1803 125.466 27.2986V27.4382C125.099 27.2285 124.313 26.9141 123.352 26.9141C121.412 26.9141 119.437 27.9797 119.437 29.9718C119.437 31.7892 121.028 32.9601 122.81 32.9601C124.173 32.9601 124.924 32.3485 125.397 31.6322H125.466V32.6804H127.423V27.4729C127.423 25.0619 125.624 23.7161 123.3 23.7161ZM110.77 25.6667H107.887V21.011H110.77C112.286 21.011 113.147 22.2659 113.147 23.3388C113.147 24.3914 112.286 25.6667 110.77 25.6667ZM110.718 19.1207H105.861V32.7029H107.887V27.557H110.718C112.965 27.557 115.174 25.9303 115.174 23.3388C115.174 20.7474 112.965 19.1207 110.718 19.1207ZM84.229 31.1627C82.8284 31.1627 81.6557 29.9901 81.6557 28.3795C81.6557 26.752 82.8284 25.5615 84.229 25.5615C85.6117 25.5615 86.6969 26.752 86.6969 28.3795C86.6969 29.9901 85.6117 31.1627 84.229 31.1627ZM86.5568 24.7738H86.4868C86.0318 24.2313 85.1563 23.7412 84.0537 23.7412C81.7432 23.7412 79.6255 25.7715 79.6255 28.3795C79.6255 30.9701 81.7432 32.983 84.0537 32.983C85.1563 32.983 86.0318 32.4928 86.4868 31.933H86.5568V32.5981C86.5568 34.3662 85.6117 35.3113 84.0889 35.3113C82.8462 35.3113 82.076 34.4183 81.7606 33.6658L79.993 34.401C80.5006 35.6262 81.8485 37.1316 84.0889 37.1316C86.4694 37.1316 88.4823 35.731 88.4823 32.318V24.0213H86.5568V24.7738ZM89.8824 32.7029H91.9128V19.1202H89.8824V32.7029ZM94.9061 28.2221C94.8535 26.4366 96.2888 25.5266 97.3214 25.5266C98.1271 25.5266 98.8094 25.929 99.0365 26.5071L94.9061 28.2221ZM101.207 26.6819C100.823 25.6489 99.6493 23.7412 97.2513 23.7412C94.8709 23.7412 92.8932 25.6141 92.8932 28.3621C92.8932 30.9527 94.8535 32.983 97.4788 32.983C99.5971 32.983 100.823 31.6877 101.33 30.9352L99.7547 29.8848C99.2299 30.6551 98.5117 31.1627 97.4788 31.1627C96.4463 31.1627 95.7112 30.69 95.2384 29.7626L101.417 27.2069L101.207 26.6819ZM51.9811 25.1591V27.1194H56.6719C56.5319 28.2221 56.1643 29.0271 55.6041 29.5873C54.9217 30.2702 53.8539 31.0227 51.9811 31.0227C49.0929 31.0227 46.8351 28.6948 46.8351 25.8067C46.8351 22.9187 49.0929 20.5905 51.9811 20.5905C53.539 20.5905 54.6764 21.2032 55.5167 21.9909L56.8994 20.6083C55.7268 19.4878 54.1688 18.6301 51.9811 18.6301C48.0251 18.6301 44.6995 21.8509 44.6995 25.8067C44.6995 29.7626 48.0251 32.983 51.9811 32.983C54.1167 32.983 55.7268 32.2832 56.9869 30.9701C58.2822 29.6748 58.685 27.8545 58.685 26.3844C58.685 25.929 58.6501 25.5092 58.5797 25.1591H51.9811ZM64.018 31.1627C62.6174 31.1627 61.4096 30.0075 61.4096 28.3621C61.4096 26.6993 62.6174 25.5615 64.018 25.5615C65.4181 25.5615 66.6259 26.6993 66.6259 28.3621C66.6259 30.0075 65.4181 31.1627 64.018 31.1627ZM64.018 23.7412C61.4622 23.7412 59.3792 25.6841 59.3792 28.3621C59.3792 31.0227 61.4622 32.983 64.018 32.983C66.5733 32.983 68.6563 31.0227 68.6563 28.3621C68.6563 25.6841 66.5733 23.7412 64.018 23.7412ZM74.1366 31.1627C72.7365 31.1627 71.5286 30.0075 71.5286 28.3621C71.5286 26.6993 72.7365 25.5615 74.1366 25.5615C75.5367 25.5615 76.7445 26.6993 76.7445 28.3621C76.7445 30.0075 75.5367 31.1627 74.1366 31.1627ZM74.1366 23.7412C71.5809 23.7412 69.4983 25.6841 69.4983 28.3621C69.4983 31.0227 71.5809 32.983 74.1366 32.983C76.692 32.983 78.775 31.0227 78.775 28.3621C78.775 25.6841 76.692 23.7412 74.1366 23.7412Z" fill="black"/>
<path d="M11.5273 35.299L11.4466 35.2218C11.1304 34.8872 10.9438 34.3678 10.9438 33.6952V33.8535V9.82499C10.9438 9.82281 10.9438 9.82118 10.9438 9.81945C10.9438 9.82151 10.9438 9.82325 10.9438 9.82542V9.98416C10.9438 9.25578 11.1614 8.70712 11.526 8.37813L24.9872 21.839L11.5273 35.299ZM10.9438 9.81814C10.9438 9.75828 10.9454 9.70015 10.9484 9.64289C10.9454 9.69972 10.9438 9.75828 10.9438 9.81814ZM10.9484 9.64029C10.9484 9.63953 10.9484 9.63866 10.9488 9.63779C10.9484 9.63866 10.9484 9.63953 10.9484 9.64029ZM10.9488 9.63268C10.9488 9.63225 10.9488 9.63181 10.9488 9.63138C10.9488 9.63181 10.9488 9.63225 10.9488 9.63268Z" fill="url(#paint0_linear_25_22199)"/>
<path d="M29.4736 26.4866L29.5759 26.4284L34.8919 23.4079C35.3988 23.1198 35.7365 22.7705 35.9051 22.4009C35.737 22.7705 35.3991 23.1202 34.8919 23.4084L29.5759 26.4289L29.4736 26.4866ZM29.4749 26.3274L24.9872 21.839L29.4744 17.3513L34.8919 20.429C35.5799 20.82 35.9661 21.3238 36.0307 21.8385C36.0307 21.839 36.0307 21.8398 36.0307 21.8406C35.9661 22.3542 35.5799 22.8584 34.8919 23.2492L29.4749 26.3274Z" fill="url(#paint1_linear_25_22199)"/>
<path d="M12.4869 35.8116C12.1108 35.8116 11.7827 35.6894 11.5268 35.4585L11.5273 35.4581C11.7831 35.689 12.1117 35.8116 12.4877 35.8116C12.5203 35.8116 12.5535 35.8108 12.587 35.8091C12.553 35.8108 12.5194 35.8116 12.4869 35.8116ZM12.4873 35.6525C12.1113 35.6529 11.7831 35.5302 11.5273 35.2994V35.299L24.9872 21.839L29.4749 26.3275L13.7045 35.288C13.2681 35.5354 12.8547 35.6525 12.4873 35.6525ZM11.5235 35.4556C11.4997 35.434 11.4763 35.4111 11.4534 35.3873L11.5235 35.4556Z" fill="url(#paint2_linear_25_22199)"/>
<path d="M24.9872 21.839L11.526 8.37808C11.7818 8.14764 12.1095 8.02541 12.4851 8.02541C12.8535 8.02541 13.2673 8.14297 13.7045 8.3908L29.4744 17.3513L24.9872 21.839ZM29.5759 17.2499L13.7045 8.23217C13.2673 7.98423 12.8535 7.86668 12.4851 7.86668C12.4834 7.86668 12.4822 7.86668 12.4804 7.86668C12.4826 7.86668 12.4842 7.86668 12.4868 7.86668C12.8544 7.86668 13.2677 7.9838 13.7045 8.23173L29.5759 17.2499Z" fill="url(#paint3_linear_25_22199)"/>
<path d="M12.587 35.8091C12.9286 35.7895 13.3068 35.672 13.7045 35.4466L29.4736 26.4866L13.7045 35.4466C13.3072 35.6724 12.9286 35.7895 12.587 35.8091ZM11.5269 35.4585L11.5235 35.4555C11.5247 35.4564 11.526 35.4576 11.5269 35.4585ZM11.4534 35.3872L11.4466 35.3805V35.38C11.4492 35.3825 11.4512 35.385 11.4534 35.3872Z" fill="white"/>
<path d="M29.4736 26.4866L29.5759 26.4284L29.4736 26.4866Z" fill="url(#paint4_linear_25_22199)"/>
<path d="M12.4877 35.8116C12.1117 35.8116 11.7832 35.689 11.5273 35.4581L11.5269 35.4585C11.526 35.4577 11.5247 35.4565 11.5235 35.4556L11.4534 35.3873C11.4512 35.3851 11.4492 35.3826 11.4466 35.3801L11.5273 35.2994C11.7832 35.5302 12.1113 35.6529 12.4873 35.6525C12.8547 35.6525 13.2681 35.5354 13.7045 35.288L29.4749 26.3275L29.5759 26.4285L29.4736 26.4866L13.7045 35.4467C13.3068 35.672 12.9286 35.7896 12.587 35.8091C12.5535 35.8108 12.5203 35.8116 12.4877 35.8116Z" fill="url(#paint5_linear_25_22199)"/>
<path d="M11.4466 35.3805C11.1304 35.046 10.9438 34.5266 10.9438 33.8539V33.8535C10.9438 34.5266 11.1304 35.0456 11.4466 35.3801V35.3805Z" fill="white"/>
<path d="M11.4466 35.3801C11.1304 35.0456 10.9438 34.5266 10.9438 33.8535V33.6952C10.9438 34.3679 11.1304 34.8873 11.4466 35.2218L11.5273 35.2991L11.4466 35.3801Z" fill="url(#paint6_linear_25_22199)"/>
<path d="M11.4466 35.3801L11.5273 35.2991V35.2994L11.4466 35.3801Z" fill="url(#paint7_linear_25_22199)"/>
<path d="M35.9051 22.4009C35.9886 22.2175 36.0307 22.0292 36.0307 21.8406C36.0307 21.8403 36.0307 21.8399 36.0307 21.8399C36.0307 22.0287 35.9886 22.2171 35.9051 22.4009Z" fill="white"/>
<path d="M29.5759 26.4285L29.4749 26.3274L34.8919 23.2492C35.5799 22.8584 35.9661 22.3542 36.0306 21.8406C36.0306 22.0291 35.9886 22.2175 35.905 22.4009C35.7365 22.7705 35.3987 23.1198 34.8919 23.408L29.5759 26.4285Z" fill="url(#paint8_linear_25_22199)"/>
<path d="M36.0307 21.839V21.8385C36.0302 21.2702 35.6504 20.702 34.8919 20.2707L29.5759 17.2502H29.5755L29.5759 17.2499L34.8919 20.2703C35.6513 20.7015 36.0315 21.2706 36.0307 21.839Z" fill="#404040"/>
<path d="M36.0306 21.8386C35.9661 21.3238 35.5799 20.82 34.8919 20.4291L29.4744 17.3513L29.5755 17.2503H29.5759L34.8919 20.2708C35.6504 20.702 36.0302 21.2702 36.0306 21.8386Z" fill="url(#paint9_linear_25_22199)"/>
<path d="M10.9438 9.81943C10.9438 9.81899 10.9438 9.81856 10.9438 9.81812C10.9438 9.81856 10.9438 9.81899 10.9438 9.81943ZM10.9484 9.64288C10.9484 9.64201 10.9484 9.64114 10.9484 9.64027C10.9484 9.64114 10.9484 9.64201 10.9484 9.64288ZM10.9488 9.63777C10.9488 9.63603 10.9488 9.6344 10.9488 9.63266C10.9488 9.6344 10.9488 9.63603 10.9488 9.63777ZM10.9488 9.63136C11.0117 8.51523 11.6186 7.87051 12.4771 7.86671C12.1049 7.86888 11.7807 7.99111 11.5269 8.21981V8.21938L11.5238 8.22242C11.4971 8.24654 11.4717 8.27207 11.4466 8.29836C11.1614 8.60008 10.9815 9.05205 10.9488 9.63136Z" fill="#404040"/>
<path d="M10.9438 9.98416V9.82543C10.9438 9.82325 10.9438 9.82152 10.9438 9.81945C10.9438 9.81902 10.9438 9.81858 10.9438 9.81815C10.9438 9.75828 10.9454 9.69972 10.9484 9.6429C10.9484 9.64203 10.9484 9.64116 10.9484 9.64029C10.9484 9.63953 10.9484 9.63866 10.9488 9.63779C10.9488 9.63606 10.9488 9.63443 10.9488 9.63269C10.9488 9.63225 10.9488 9.63182 10.9488 9.63138C10.9815 9.05208 11.1614 8.6001 11.4466 8.29839L11.526 8.37813C11.1614 8.70712 10.9438 9.25579 10.9438 9.98416ZM11.5238 8.22244L11.5269 8.2194C11.526 8.2207 11.5247 8.22157 11.5238 8.22244Z" fill="url(#paint10_linear_25_22199)"/>
<path d="M29.4744 17.3513L13.7045 8.39081C13.2673 8.14298 12.8535 8.02542 12.4851 8.02542C12.1095 8.02542 11.7819 8.14765 11.526 8.37809L11.4466 8.29835C11.4717 8.27205 11.4971 8.24652 11.5238 8.2224C11.5247 8.22153 11.526 8.22066 11.5269 8.21979C11.7807 7.99109 12.1049 7.86886 12.4771 7.86669C12.478 7.86669 12.4791 7.86669 12.4805 7.86669C12.4822 7.86669 12.4834 7.86669 12.4851 7.86669C12.8535 7.86669 13.2673 7.98424 13.7045 8.23218L29.5759 17.2499L29.5755 17.2502L29.4744 17.3513Z" fill="url(#paint11_linear_25_22199)"/>
</g>
<defs>
<linearGradient id="paint0_linear_25_22199" x1="23.7936" y1="9.57151" x2="5.55984" y2="27.8053" gradientUnits="userSpaceOnUse">
<stop stop-color="#00A0FF"/>
<stop offset="0.00657445" stop-color="#00A1FF"/>
<stop offset="0.2601" stop-color="#00BEFF"/>
<stop offset="0.5122" stop-color="#00D2FF"/>
<stop offset="0.7604" stop-color="#00DFFF"/>
<stop offset="1" stop-color="#00E3FF"/>
</linearGradient>
<linearGradient id="paint1_linear_25_22199" x1="36.8689" y1="21.8396" x2="10.5794" y2="21.8396" gradientUnits="userSpaceOnUse">
<stop stop-color="#FFE000"/>
<stop offset="0.4087" stop-color="#FFBD00"/>
<stop offset="0.7754" stop-color="#FFA500"/>
<stop offset="1" stop-color="#FF9C00"/>
</linearGradient>
<linearGradient id="paint2_linear_25_22199" x1="27.0826" y1="24.3328" x2="2.35623" y2="49.0591" gradientUnits="userSpaceOnUse">
<stop stop-color="#FF3A44"/>
<stop offset="1" stop-color="#C31162"/>
</linearGradient>
<linearGradient id="paint3_linear_25_22199" x1="8.03697" y1="0.300037" x2="19.0783" y2="11.3413" gradientUnits="userSpaceOnUse">
<stop stop-color="#32A071"/>
<stop offset="0.0685" stop-color="#2DA771"/>
<stop offset="0.4762" stop-color="#15CF74"/>
<stop offset="0.8009" stop-color="#06E775"/>
<stop offset="1" stop-color="#00F076"/>
</linearGradient>
<linearGradient id="paint4_linear_25_22199" x1="36.8687" y1="21.8398" x2="10.58" y2="21.8398" gradientUnits="userSpaceOnUse">
<stop stop-color="#CCB300"/>
<stop offset="0.4087" stop-color="#CC9700"/>
<stop offset="0.7754" stop-color="#CC8400"/>
<stop offset="1" stop-color="#CC7D00"/>
</linearGradient>
<linearGradient id="paint5_linear_25_22199" x1="27.0826" y1="24.3328" x2="2.35624" y2="49.0591" gradientUnits="userSpaceOnUse">
<stop stop-color="#CC2E36"/>
<stop offset="1" stop-color="#9C0E4E"/>
</linearGradient>
<linearGradient id="paint6_linear_25_22199" x1="23.7936" y1="9.57157" x2="5.55987" y2="27.8054" gradientUnits="userSpaceOnUse">
<stop stop-color="#008DE0"/>
<stop offset="0.00657445" stop-color="#008DE0"/>
<stop offset="0.2601" stop-color="#00A7E0"/>
<stop offset="0.5122" stop-color="#00B8E0"/>
<stop offset="0.7604" stop-color="#00C4E0"/>
<stop offset="1" stop-color="#00C7E0"/>
</linearGradient>
<linearGradient id="paint7_linear_25_22199" x1="27.083" y1="24.333" x2="2.35705" y2="49.0601" gradientUnits="userSpaceOnUse">
<stop stop-color="#E0333C"/>
<stop offset="1" stop-color="#AB0F56"/>
</linearGradient>
<linearGradient id="paint8_linear_25_22199" x1="36.8689" y1="21.8396" x2="10.5794" y2="21.8396" gradientUnits="userSpaceOnUse">
<stop stop-color="#E0C500"/>
<stop offset="0.4087" stop-color="#E0A600"/>
<stop offset="0.7754" stop-color="#E09100"/>
<stop offset="1" stop-color="#E08900"/>
</linearGradient>
<linearGradient id="paint9_linear_25_22199" x1="36.8689" y1="21.8396" x2="10.5795" y2="21.8396" gradientUnits="userSpaceOnUse">
<stop stop-color="#FFE840"/>
<stop offset="0.4087" stop-color="#FFCE40"/>
<stop offset="0.7754" stop-color="#FFBC40"/>
<stop offset="1" stop-color="#FFB540"/>
</linearGradient>
<linearGradient id="paint10_linear_25_22199" x1="23.7936" y1="9.57152" x2="5.55984" y2="27.8053" gradientUnits="userSpaceOnUse">
<stop stop-color="#40B8FF"/>
<stop offset="0.00657445" stop-color="#40B9FF"/>
<stop offset="0.2601" stop-color="#40CEFF"/>
<stop offset="0.5122" stop-color="#40DDFF"/>
<stop offset="0.7604" stop-color="#40E7FF"/>
<stop offset="1" stop-color="#40EAFF"/>
</linearGradient>
<linearGradient id="paint11_linear_25_22199" x1="8.03699" y1="0.300045" x2="19.0783" y2="11.3413" gradientUnits="userSpaceOnUse">
<stop stop-color="#65B895"/>
<stop offset="0.0685" stop-color="#62BD95"/>
<stop offset="0.4762" stop-color="#50DB97"/>
<stop offset="0.8009" stop-color="#44ED98"/>
<stop offset="1" stop-color="#40F498"/>
</linearGradient>
<clipPath id="clip0_25_22199">
<rect width="147" height="43.6763" fill="white"/>
</clipPath>
</defs>
</svg>
